PathFileType	4	(X/Y/Z)	C:/Users/opensim2020/Desktop/walking_exp_matlab/subject06_walking16_straight_04.trc	
DataRate	CameraRate	NumFrames	NumMarkers	Units	OrigDataRate	OrigDataStartFrame	OrigNumFrames	
100.00	100.00	6	51	mm	100.00	3833	352	
Frame#	Time	LFHD			RFHD			LBHD			RBHD			C7			T10			CLAV			STRN			RBAK			LSHO			LUPA			LELB			LFRM			LWRA			LWRB			LFIN			RSHO			RUPA			RELB			RFRM			RWRA			RWRB			RFIN			LASI			RASI			LPSI			RPSI			LTHI			LKNE			LTIB			LANK			LHEE			LTOE			RTHI			RKNE			RTIB			RANK			RHEE			RTOE			*39			*40			*41			*42			*43			*44			*45			*46			*47			*48			*49			*50			
		X1	Y1	Z1	X2	Y2	Z2	X3	Y3	Z3	X4	Y4	Z4	X5	Y5	Z5	X6	Y6	Z6	X7	Y7	Z7	X8	Y8	Z8	X9	Y9	Z9	X10	Y10	Z10	X11	Y11	Z11	X12	Y12	Z12	X13	Y13	Z13	X14	Y14	Z14	X15	Y15	Z15	X16	Y16	Z16	X17	Y17	Z17	X18	Y18	Z18	X19	Y19	Z19	X20	Y20	Z20	X21	Y21	Z21	X22	Y22	Z22	X23	Y23	Z23	X24	Y24	Z24	X25	Y25	Z25	X26	Y26	Z26	X27	Y27	Z27	X28	Y28	Z28	X29	Y29	Z29	X30	Y30	Z30	X31	Y31	Z31	X32	Y32	Z32	X33	Y33	Z33	X34	Y34	Z34	X35	Y35	Z35	X36	Y36	Z36	X37	Y37	Z37	X38	Y38	Z38	X39	Y39	Z39	X40	Y40	Z40	X41	Y41	Z41	X42	Y42	Z42	X43	Y43	Z43	X44	Y44	Z44	X45	Y45	Z45	X46	Y46	Z46	X47	Y47	Z47	X48	Y48	Z48	X49	Y49	Z49	X50	Y50	Z50	X51	Y51	Z51	

1	0.000	1509.06592	1229.04724	1661.44385	1378.70239	1236.11731	1642.18787	1520.34729	1360.11621	1602.79871	1392.37146	1365.71130	1589.19910	1469.69043	1359.97559	1445.43457	1461.73132	1396.93774	1117.64197	1467.15527	1250.95422	1366.68823	1478.60913	1216.59399	1189.86157	1393.55933	1436.57031	1274.86597	1629.10645	1299.48035	1400.27576	1701.65100	1260.51123	1202.87451	1712.81812	1226.75195	1093.91296	1708.32031	1121.69641	984.52057	1646.82971	1011.68542	942.52997	1675.54553	1051.92615	892.63568	1662.00073	969.73199	857.10931	1305.84753	1297.30542	1395.98596	1222.97058	1350.52368	1198.81250	1211.81360	1349.42224	1076.30054	1194.68091	1341.41479	955.86609	1224.65295	1289.49414	813.60522	1185.46423	1344.28601	818.23907	1183.64563	1311.47424	740.23248	1580.30811	1230.32227	951.57379	1359.06738	1208.65210	966.64813	1537.31177	1383.17993	984.32739	1370.12756	1362.07153	991.55957	1620.31067	1344.08423	643.01117	1597.52161	1378.20398	482.02094	1589.17859	1506.32520	256.56714	1541.53320	1572.38513	97.23074	1495.55066	1614.88818	94.04350	1544.13000	1439.63477	39.82735	1286.14624	1216.76587	639.98175	1314.91675	1186.98730	520.21594	1306.02734	1174.06189	255.82494	1346.58130	1139.59656	71.45961	1394.37207	1171.18152	45.28697	1349.87842	981.47821	47.37762	1453.43213	1333.86731	1692.67041																																	 
2	0.010	1507.27356	1222.88428	1662.74866	1376.83948	1229.87146	1643.38574	1518.43054	1353.89136	1604.00452	1390.47021	1359.31006	1590.26221	1467.94263	1353.45544	1446.50024	1460.29041	1390.29321	1118.89050	1465.56641	1244.26477	1367.98547	1476.96277	1209.78223	1191.15442	1391.89124	1429.76318	1276.02307	1627.40503	1293.05237	1401.61230	1699.98218	1254.30383	1204.22437	1711.00366	1220.73425	1095.03613	1706.82703	1115.71667	985.73596	1645.96448	1005.27039	944.01630	1673.95093	1045.78931	893.95898	1660.91272	963.58734	858.46899	1304.22913	1290.48767	1397.24634	1221.34619	1343.10168	1199.88464	1210.37390	1341.82446	1077.45337	1193.40845	1333.66821	956.98114	1223.65369	1281.78137	814.70599	1184.22461	1336.43201	819.33246	1182.69019	1303.62842	741.32227	1578.44922	1223.50085	952.54272	1357.09241	1202.35046	967.90869	1536.00598	1376.39966	985.40021	1368.93152	1355.78845	992.86334	1619.11414	1337.15198	643.68640	1596.66882	1370.72742	482.58002	1589.30713	1502.01526	258.99075	1542.53003	1570.67334	100.54602	1496.74768	1613.31531	98.14655	1544.28601	1439.27283	39.83894	1285.24768	1210.63586	641.27271	1313.76636	1182.07922	521.18982	1305.22058	1170.91382	256.44955	1346.46240	1138.76733	71.60693	1394.01392	1170.97485	45.38591	1350.80347	980.94067	46.56120	1451.49146	1327.66907	1693.79810																																	 
3	0.020	1505.47852	1216.70886	1664.09766	1375.13171	1223.30737	1644.61975	1516.57825	1347.69080	1605.29968	1388.59314	1352.94275	1591.47229	1466.18079	1346.95862	1447.68799	1458.77844	1383.71204	1120.20679	1463.91650	1237.70703	1369.31189	1475.30847	1203.00940	1192.56775	1390.13293	1423.01392	1277.33728	1625.61365	1286.59436	1403.05530	1698.29858	1248.03821	1205.68530	1709.22449	1214.86304	1096.44556	1705.37988	1109.86230	986.95630	1645.13672	999.05164	945.42560	1672.41113	1039.80212	895.18945	1659.88647	957.58813	859.71924	1302.59387	1283.65613	1398.61877	1219.67786	1335.64807	1201.08789	1208.90637	1334.28552	1078.65259	1192.08850	1325.90710	958.24780	1222.62109	1274.01843	815.90149	1182.98572	1328.33813	820.56244	1181.68835	1295.43738	742.51971	1576.43811	1216.74878	953.62524	1355.04224	1196.04138	969.19928	1534.63867	1369.65210	986.57611	1367.61536	1349.28796	994.07391	1617.92542	1329.91089	644.42474	1595.89075	1362.67029	483.15588	1589.43066	1497.34351	261.54535	1543.57080	1568.67737	104.07575	1497.94092	1611.43115	102.54415	1544.45996	1438.84375	39.83426	1284.58569	1205.11072	642.31842	1312.57764	1177.59949	521.83563	1304.58325	1167.51404	256.91119	1346.53711	1138.20776	71.65471	1393.89539	1170.94531	45.43898	1351.82434	980.55377	45.89645	1449.55054	1321.41064	1695.07642																																	 
4	0.030	1503.64038	1210.44897	1665.41772	1373.39294	1216.96155	1645.88501	1514.69104	1341.42102	1606.56091	1386.70349	1346.50842	1592.68042	1464.47180	1340.53333	1448.88428	1457.12207	1377.13208	1121.52234	1462.19189	1231.22217	1370.62268	1473.57056	1196.19641	1193.89722	1388.35986	1416.22852	1278.69629	1623.78882	1280.15796	1404.52075	1696.49744	1241.64514	1207.21790	1707.35486	1209.03650	1097.80029	1704.26819	1104.37146	988.40942	1644.33533	992.94922	946.67932	1671.03503	1034.01660	896.47357	1658.90784	951.74677	860.85919	1300.91992	1276.94531	1399.99500	1217.84998	1328.31726	1202.43298	1207.40027	1326.75793	1079.97986	1190.67407	1318.11353	959.55145	1221.59216	1265.83118	817.51178	1181.45374	1320.50269	821.93542	1180.75085	1287.13916	743.80493	1574.44421	1210.04529	954.91833	1353.15930	1189.57690	970.50769	1533.06628	1362.98376	987.73602	1366.21069	1342.69482	995.19818	1616.81738	1322.32617	645.19592	1595.21838	1354.02258	483.69836	1589.57849	1492.36182	264.33847	1544.58215	1566.37476	107.94013	1499.14026	1609.10498	107.32063	1544.62585	1438.40308	39.83551	1283.84973	1200.00854	642.99219	1311.38855	1173.07825	522.34821	1304.17639	1164.32349	257.07300	1346.68970	1137.62708	71.69147	1393.87659	1170.77905	45.57236	1352.46033	980.08807	45.63987	1447.65076	1315.11438	1696.30542																																	 
5	0.040	1501.94336	1204.21350	1666.65259	1371.60718	1210.76855	1647.05383	1512.80298	1335.19983	1607.80176	1384.89014	1340.19043	1593.91064	1462.70081	1334.20496	1450.00171	1455.31763	1370.55383	1122.77588	1460.58716	1224.72400	1371.96716	1471.84546	1189.43811	1195.25977	1386.52258	1409.44727	1279.93860	1621.98486	1273.74792	1405.96350	1694.73425	1235.24548	1208.75537	1705.53296	1203.30530	1099.16418	1702.81738	1098.79602	989.58038	1643.46521	987.06836	947.85931	1669.80676	1028.41479	897.61548	1658.00500	946.11523	861.85071	1299.32092	1270.25964	1401.45093	1216.03711	1321.02063	1203.80969	1205.74451	1319.36499	1081.30420	1189.24951	1310.26782	960.91962	1220.46863	1257.59790	818.92975	1180.17749	1312.14758	823.30231	1179.48877	1278.62683	745.26575	1572.42358	1203.47119	956.29028	1351.30652	1183.04126	971.97961	1531.36414	1356.40820	988.85376	1364.54578	1336.03601	996.32782	1615.72192	1314.50427	646.00238	1594.67273	1344.73669	484.18362	1589.68665	1486.92053	267.34683	1545.56860	1563.71838	112.14198	1500.21240	1606.40271	112.56909	1544.79089	1437.83618	39.86306	1282.80920	1195.08582	643.57416	1310.54944	1168.67090	522.64355	1303.88208	1161.71631	257.20029	1346.79114	1136.88818	71.77525	1393.81506	1170.36340	45.74244	1352.73389	979.41992	45.03802	1445.80969	1308.79480	1697.55896																																	 
6	0.050	1500.21179	1197.98718	1667.88403	1369.91724	1204.25854	1648.31287	1510.99634	1328.96814	1609.01489	1383.06726	1333.83972	1595.12561	1460.86450	1327.88000	1451.06653	1453.27112	1363.96362	1123.94727	1458.85840	1218.27271	1373.25977	1470.11377	1182.76990	1196.63269	1384.61792	1402.78088	1281.06982	1620.10156	1267.41919	1407.35229	1692.94763	1228.85217	1210.30066	1703.63953	1197.57275	1100.48950	1701.46448	1093.34949	990.70081	1642.66125	981.34015	948.89819	1668.65295	1022.90656	898.64514	1657.16711	940.65143	862.75684	1297.58618	1263.62524	1402.84583	1214.14563	1313.88611	1205.14990	1204.01855	1311.96533	1082.64148	1187.71252	1302.41736	962.26685	1219.29688	1249.14575	820.69873	1179.03125	1303.36560	824.59723	1178.27783	1269.75378	746.65747	1570.58679	1196.92651	957.70984	1349.74536	1176.41125	973.10370	1529.45251	1349.93213	990.01971	1362.76709	1329.12769	997.35815	1614.49146	1306.48718	646.70947	1594.21472	1334.78711	484.68747	1589.74048	1480.99768	270.55716	1546.40588	1560.65320	116.64129	1501.14893	1603.03833	118.08728	1544.88928	1437.28064	39.89948	1281.86755	1190.19128	643.86951	1309.73132	1164.24121	522.85052	1303.54321	1159.67493	257.21304	1346.84729	1136.12488	71.78372	1393.78687	1169.99304	45.93847	1352.63940	979.13208	43.91498	1444.00366	1302.52429	1698.77869																																	 
